<svg xmlns="http://www.w3.org/2000/svg" width="24" height="24" viewBox="0 0 24 24"><defs><style>.a{fill:none;}.b{fill:#ccd2e2;}</style></defs><path class="a" d="M0,0H24V24H0Z"/><path class="b" d="M12.72,2.03A9.991,9.991,0,0,0,2.03,12.72,10.191,10.191,0,0,0,12.31,22H16a1,1,0,0,0,0-2H12.33a8.274,8.274,0,0,1-8.08-6.03,8.027,8.027,0,0,1,9.71-9.71A8.251,8.251,0,0,1,20,12.33v1.1A1.616,1.616,0,0,1,18.5,15,1.616,1.616,0,0,1,17,13.43V12.18a5.114,5.114,0,0,0-4.26-5.12,5.005,5.005,0,1,0,2.8,8.48,3.7,3.7,0,0,0,4.3,1.21A3.56,3.56,0,0,0,22,13.41V12.32A10.193,10.193,0,0,0,12.72,2.03ZM12,15a3,3,0,1,1,3-3A3,3,0,0,1,12,15Z"/></svg>